<svg xmlns="http://www.w3.org/2000/svg" xmlns:xlink="http://www.w3.org/1999/xlink" id="Capa_1" x="0px" y="0px" viewBox="0 0 350 97.59" style="enable-background:new 0 0 350 97.59;" xml:space="preserve"> <style type="text/css"> .st0{fill:#FF8200;} .st1{fill:#FFFFFF;} </style> <g> <g> <g> <g> <g> <polygon id="XMLID_00000115502120182946124770000017041620995687895452_" class="st0" points="347.13,74.48 338.61,74.48 334.83,66.87 343.3,66.87 "></polygon> <path class="st1" d="M14.89,30.9c3.84-2.15,7.97-3.23,12.4-3.23c3.76,0,7.39,0.8,10.88,2.39c3.49,1.59,6.49,3.85,9.02,6.79 l-6.08,5.79c-4.14-4.37-8.79-6.56-13.95-6.56c-4.36,0-8.04,1.49-11.02,4.47c-2.99,2.98-4.48,6.66-4.48,11.03 c0,3.05,0.66,5.75,1.98,8.11c1.32,2.36,3.19,4.22,5.61,5.56c2.42,1.35,5.11,2.02,8.06,2.02c2.52,0,4.83-0.47,6.91-1.41 c2.09-0.94,4.38-2.65,6.89-5.14l5.89,6.15c-3.37,3.29-6.56,5.57-9.56,6.85c-3,1.27-6.42,1.91-10.27,1.91 c-7.1,0-12.91-2.25-17.43-6.75c-4.52-4.5-6.78-10.27-6.78-17.3c0-4.55,1.03-8.6,3.09-12.14C8.1,35.9,11.05,33.05,14.89,30.9 M54.16,74.48h8.63V28.82h-8.63V74.48z M70.84,28.82v45.65h29.52v-8.53h-20.9V53.93h20.9v-8.35h-20.9v-8.25h20.9v-8.5H70.84z M207.99,28.82v45.65h8.63V53.93h13.99v-8.35h-13.99v-8.25h20.9v-8.5H207.99z M135.49,28.82v30.04l-19.53-30.04h-8.33v45.65 h8.69V44.53l19.51,29.95h8.36V28.82H135.49z M150.11,28.82v8.56h13.37v37.09h8.81V37.39h13.59v-8.56H150.11z M243.52,74.48 h8.63V28.82h-8.63V74.48z M269.3,30.9c-3.84,2.15-6.79,5-8.85,8.54c-2.06,3.54-3.09,7.58-3.09,12.14 c0,7.03,2.26,12.8,6.78,17.3c4.52,4.5,10.33,6.75,17.43,6.75c3.85,0,7.27-0.64,10.27-1.91c3-1.27,6.19-3.56,9.56-6.85 l-5.89-6.15c-2.5,2.49-4.8,4.2-6.89,5.14c-2.09,0.94-4.39,1.41-6.91,1.41c-2.96,0-5.64-0.67-8.06-2.02 c-2.42-1.35-4.29-3.2-5.61-5.56c-1.32-2.36-1.98-5.06-1.98-8.11c0-4.37,1.49-8.05,4.48-11.03c2.99-2.98,6.66-4.47,11.02-4.47 c5.17,0,9.82,2.19,13.95,6.56l6.08-5.79c-2.52-2.93-5.53-5.2-9.02-6.79c-3.49-1.59-7.11-2.39-10.88-2.39 C277.27,27.67,273.13,28.75,269.3,30.9 M301.37,74.48h8.47l3.89-7.66l3.77-7.55l6.75-13.44l8.06,16.3h8.58l-16.64-33.41 L301.37,74.48z M192.1,28.82v5.75l8.63-5.75v0H192.1z M192.1,39.85v34.63h8.63V34.1L192.1,39.85z M11.91,17.94 c0.79-0.29,1.46-0.72,2.03-1.29c0.56-0.57,1-1.29,1.31-2.14c0.31-0.85,0.46-1.84,0.46-2.97V2.7h-1.74v8.97 c0,1.69-0.42,2.96-1.25,3.81c-0.84,0.85-1.97,1.28-3.39,1.28c-1.48,0-2.64-0.45-3.47-1.34c-0.83-0.9-1.24-2.18-1.24-3.86V2.7 H2.87v8.97c0,1.09,0.15,2.05,0.46,2.89c0.31,0.84,0.74,1.54,1.31,2.1c0.57,0.57,1.24,0.99,2.03,1.28 c0.79,0.29,1.66,0.43,2.61,0.43C10.25,18.37,11.13,18.22,11.91,17.94z M21.77,18.12h1.7V5.48l9.96,12.64h1.39V2.7h-1.7v12.36 L23.4,2.7h-1.63V18.12z M40.86,18.12h1.74V2.7h-1.74V18.12z M55.28,18.23h1.54L63.45,2.7h-1.87l-5.51,13.28L50.59,2.7h-1.94 L55.28,18.23z M71.24,16.56v-5.42h8.41V9.58h-8.41V4.27h9.41V2.7H69.5v15.42h11.26v-1.56H71.24z M99.57,18.12h-2.14l-4.47-5.99 h-0.04h-4.36v5.99h-1.74V2.7h6.63c0.95,0,1.8,0.14,2.54,0.41c0.74,0.27,1.35,0.65,1.84,1.14c0.38,0.38,0.68,0.83,0.88,1.34 c0.21,0.51,0.31,1.08,0.31,1.7v0.04c0,0.65-0.1,1.22-0.31,1.73c-0.21,0.51-0.5,0.95-0.87,1.32c-0.37,0.38-0.82,0.68-1.33,0.93 c-0.51,0.24-1.07,0.42-1.67,0.52L99.57,18.12z M93.3,10.57c0.57,0,1.1-0.07,1.59-0.22c0.49-0.15,0.91-0.36,1.26-0.63 c0.35-0.27,0.63-0.6,0.83-0.99c0.2-0.39,0.3-0.83,0.3-1.33V7.35c0-0.95-0.35-1.7-1.04-2.24c-0.69-0.54-1.66-0.8-2.91-0.8h-4.77 v6.26H93.3z M115.94,11.16c-0.82-0.68-2.08-1.2-3.8-1.59c-0.85-0.18-1.55-0.36-2.09-0.56c-0.54-0.2-0.97-0.42-1.28-0.66 c-0.31-0.24-0.52-0.51-0.64-0.79c-0.12-0.29-0.18-0.61-0.18-0.98V6.54c0-0.71,0.29-1.3,0.88-1.77c0.59-0.48,1.39-0.72,2.4-0.72 c0.79,0,1.55,0.13,2.28,0.4c0.73,0.26,1.45,0.69,2.17,1.28l1.01-1.34c-0.79-0.63-1.61-1.1-2.46-1.42 c-0.84-0.32-1.83-0.47-2.96-0.47c-0.73,0-1.41,0.11-2.03,0.32c-0.62,0.21-1.15,0.51-1.61,0.88c-0.46,0.37-0.81,0.82-1.06,1.33 c-0.25,0.51-0.38,1.07-0.38,1.67v0.04c0,0.63,0.1,1.18,0.31,1.65c0.21,0.47,0.52,0.88,0.95,1.23c0.43,0.35,0.97,0.65,1.62,0.9 c0.65,0.25,1.42,0.47,2.31,0.66c0.81,0.18,1.48,0.36,2,0.55c0.52,0.19,0.93,0.4,1.23,0.64c0.29,0.23,0.5,0.49,0.62,0.78 c0.12,0.29,0.18,0.61,0.18,0.96v0.04c0,0.76-0.31,1.39-0.94,1.88c-0.62,0.49-1.46,0.74-2.5,0.74c-1.07,0-2.02-0.18-2.84-0.54 c-0.82-0.36-1.64-0.91-2.45-1.64l-1.08,1.28c0.93,0.84,1.9,1.46,2.92,1.86c1.02,0.4,2.15,0.61,3.38,0.61 c0.76,0,1.47-0.1,2.11-0.31c0.65-0.21,1.2-0.5,1.66-0.88c0.46-0.38,0.82-0.84,1.08-1.38c0.26-0.54,0.39-1.13,0.39-1.8v-0.04 C117.16,12.76,116.75,11.84,115.94,11.16z M123.21,18.12h1.74V2.7h-1.74V18.12z M144.55,10.37v0.04c0,1.09-0.2,2.1-0.6,3.04 c-0.4,0.94-0.96,1.75-1.68,2.44c-0.73,0.69-1.59,1.23-2.6,1.63c-1.01,0.4-2.11,0.59-3.32,0.59H131V2.7h5.35 c1.2,0,2.31,0.19,3.32,0.58c1.01,0.39,1.87,0.93,2.6,1.62c0.73,0.69,1.29,1.5,1.68,2.43C144.35,8.27,144.55,9.28,144.55,10.37z M142.74,10.41c0-0.85-0.15-1.65-0.45-2.39c-0.3-0.74-0.73-1.39-1.28-1.94c-0.55-0.55-1.22-0.98-2.02-1.3 c-0.79-0.31-1.67-0.47-2.64-0.47h-3.61v12.2h3.61c0.97,0,1.85-0.15,2.64-0.46c0.79-0.31,1.47-0.73,2.02-1.28 c0.55-0.54,0.98-1.19,1.28-1.93c0.3-0.74,0.45-1.54,0.45-2.39V10.41z M166.28,18.12h-1.87l-1.81-4.08h-8.39l-1.83,4.08h-1.78 l7.03-15.53h1.63L166.28,18.12z M161.92,12.48l-3.5-7.86l-3.53,7.86H161.92z M185.88,10.37v0.04c0,1.09-0.2,2.1-0.6,3.04 c-0.4,0.94-0.96,1.75-1.68,2.44c-0.73,0.69-1.59,1.23-2.6,1.63c-1.01,0.4-2.11,0.59-3.32,0.59h-5.35V2.7h5.35 c1.2,0,2.31,0.19,3.32,0.58c1.01,0.39,1.87,0.93,2.6,1.62c0.73,0.69,1.29,1.5,1.68,2.43C185.68,8.27,185.88,9.28,185.88,10.37z M184.08,10.41c0-0.85-0.15-1.65-0.45-2.39c-0.3-0.74-0.73-1.39-1.28-1.94c-0.55-0.55-1.22-0.98-2.02-1.3 c-0.79-0.31-1.67-0.47-2.64-0.47h-3.61v12.2h3.61c0.97,0,1.85-0.15,2.64-0.46c0.79-0.31,1.47-0.73,2.02-1.28 c0.55-0.54,0.98-1.19,1.28-1.93c0.3-0.74,0.45-1.54,0.45-2.39V10.41z"></path> </g> <g> <path class="st0" d="M275.14,84.77h3.53c0.79,0,1.52,0.13,2.19,0.39c0.66,0.26,1.24,0.61,1.72,1.07 c0.48,0.46,0.85,0.99,1.11,1.61c0.26,0.61,0.39,1.28,0.39,2v0.03c0,0.72-0.13,1.39-0.39,2.01c-0.26,0.62-0.63,1.16-1.11,1.61 c-0.48,0.46-1.05,0.81-1.72,1.08c-0.66,0.26-1.39,0.39-2.19,0.39h-3.53V84.77z M278.67,93.89c0.64,0,1.22-0.1,1.74-0.31 c0.52-0.2,0.97-0.48,1.33-0.84c0.36-0.36,0.64-0.78,0.84-1.27c0.2-0.49,0.3-1.02,0.3-1.58v-0.03c0-0.56-0.1-1.09-0.3-1.58 c-0.2-0.49-0.48-0.92-0.84-1.28c-0.36-0.36-0.81-0.65-1.33-0.86c-0.52-0.21-1.1-0.31-1.74-0.31h-2.38v8.05H278.67z"></path> <path class="st0" d="M287.96,84.77h7.35v1.03h-6.21v3.5h5.55v1.03h-5.55v3.58h6.28v1.03h-7.43V84.77z"></path> <path class="st0" d="M299.15,84.77h1.15v9.11h5.73v1.06h-6.87V84.77z"></path> <path class="st0" d="M318.92,95.09c-0.81,0-1.56-0.13-2.23-0.4c-0.67-0.27-1.31-0.68-1.93-1.23l0.71-0.84 c0.53,0.49,1.07,0.85,1.61,1.08c0.54,0.24,1.17,0.36,1.88,0.36c0.69,0,1.24-0.16,1.65-0.49c0.41-0.32,0.62-0.74,0.62-1.24V92.3 c0-0.23-0.04-0.44-0.12-0.63c-0.08-0.19-0.21-0.36-0.41-0.52c-0.19-0.15-0.46-0.29-0.81-0.42c-0.34-0.12-0.78-0.25-1.32-0.36 c-0.58-0.13-1.09-0.27-1.52-0.44c-0.43-0.17-0.79-0.36-1.07-0.6c-0.28-0.23-0.49-0.5-0.63-0.81c-0.14-0.31-0.2-0.67-0.2-1.09 V87.4c0-0.4,0.08-0.76,0.25-1.1c0.16-0.34,0.4-0.63,0.7-0.88c0.3-0.25,0.65-0.44,1.06-0.58c0.41-0.14,0.85-0.21,1.34-0.21 c0.75,0,1.4,0.11,1.95,0.31c0.56,0.21,1.1,0.52,1.62,0.94l-0.67,0.89c-0.47-0.39-0.95-0.67-1.43-0.84 c-0.48-0.17-0.98-0.26-1.5-0.26c-0.67,0-1.2,0.16-1.59,0.47c-0.39,0.31-0.58,0.7-0.58,1.17v0.03c0,0.24,0.04,0.46,0.12,0.65 c0.08,0.19,0.22,0.36,0.42,0.52c0.2,0.16,0.49,0.3,0.84,0.44c0.36,0.13,0.82,0.25,1.38,0.37c1.13,0.25,1.97,0.6,2.51,1.05 c0.54,0.45,0.81,1.06,0.81,1.83v0.03c0,0.44-0.09,0.83-0.26,1.18c-0.17,0.35-0.41,0.66-0.71,0.91 c-0.3,0.25-0.67,0.45-1.09,0.58C319.88,95.02,319.42,95.09,318.92,95.09z"></path> <path class="st0" d="M330.24,95.11c-0.63,0-1.2-0.09-1.72-0.28c-0.52-0.19-0.96-0.47-1.34-0.84c-0.37-0.37-0.66-0.84-0.87-1.39 c-0.2-0.55-0.31-1.19-0.31-1.9v-5.92h1.15v5.84c0,1.1,0.27,1.95,0.82,2.54c0.55,0.59,1.31,0.89,2.29,0.89 c0.94,0,1.69-0.28,2.24-0.84c0.55-0.56,0.83-1.4,0.83-2.51v-5.92h1.15v5.83c0,0.75-0.1,1.4-0.3,1.96 c-0.2,0.56-0.49,1.03-0.87,1.41c-0.37,0.38-0.82,0.66-1.34,0.85C331.46,95.01,330.88,95.11,330.24,95.11z"></path> <path class="st0" d="M338.66,84.77h4.37c0.63,0,1.19,0.09,1.68,0.27c0.49,0.18,0.89,0.43,1.21,0.75 c0.25,0.25,0.45,0.55,0.58,0.89c0.14,0.34,0.2,0.71,0.2,1.12v0.03c0,0.43-0.07,0.81-0.2,1.14c-0.14,0.33-0.33,0.63-0.57,0.87 c-0.25,0.25-0.54,0.45-0.88,0.61c-0.34,0.16-0.71,0.27-1.1,0.34l3.13,4.16h-1.41l-2.95-3.95h-0.03h-2.88v3.95h-1.15V84.77z M342.94,89.96c0.38,0,0.73-0.05,1.05-0.15c0.32-0.1,0.6-0.23,0.83-0.41c0.23-0.18,0.42-0.4,0.55-0.65 c0.13-0.26,0.2-0.55,0.2-0.88v-0.03c0-0.63-0.23-1.12-0.68-1.48c-0.46-0.35-1.1-0.53-1.92-0.53h-3.15v4.13H342.94z"></path> </g> </g> </g> </g> </g> </svg>